<?xml version="1.0" encoding="UTF-8"?>
<svg id="Layer_3" data-name="Layer 3" xmlns="http://www.w3.org/2000/svg" viewBox="0 0 563.76 344.65">
  <defs>
    <style>
      .cls-1, .cls-2, .cls-3, .cls-4, .cls-5, .cls-6, .cls-7, .cls-8, .cls-9, .cls-10 {
        stroke: #231f20;
        stroke-miterlimit: 10;
      }

      .cls-1, .cls-7, .cls-11 {
        fill: #8da138;
      }

      .cls-2, .cls-3 {
        fill: #2b2f33;
      }

      .cls-12, .cls-13, .cls-11, .cls-14 {
        stroke-width: 0px;
      }

      .cls-3, .cls-5, .cls-7, .cls-8 {
        stroke-linecap: round;
      }

      .cls-4 {
        fill: #3866a1;
      }

      .cls-5 {
        fill: none;
      }

      .cls-6, .cls-13 {
        fill: #4984d1;
      }

      .cls-14 {
        fill: #231f20;
      }

      .cls-8, .cls-10 {
        fill: #a0adbd;
      }

      .cls-9 {
        fill: #1a7408;
      }
    </style>
  </defs>
  <g>
    <path class="cls-11" d="M100.96,102.82c6.79.8,11.98,6.59,11.98,13.58l.2,65.51c0,7.59-6.19,13.58-13.58,13.58H17.27c-7.39,0-13.38-5.99-13.38-13.58V53.68c0-7.39,5.99-13.38,13.38-13.38h70.11c7.59,0,13.58,5.99,13.58,13.38v49.14ZM45.23,97.23h14.38v-15.58h-14.38v15.58ZM71.6,138.57h-26.37v15.58h26.37v-15.58Z"/>
    <path class="cls-14" d="M206.62,40.3c7.59,0,13.58,5.99,13.58,13.58v128.23c0,7.39-5.99,13.38-13.58,13.38h-69.91c-7.39,0-13.58-5.99-13.58-13.38V53.88c0-7.59,6.19-13.58,13.58-13.58h69.91ZM178.86,81.65h-14.38v72.5h14.38v-72.5Z"/>
    <path class="cls-11" d="M327.26,102.82c6.79.8,11.98,6.59,11.98,13.58l.2,65.51c0,7.59-6.19,13.58-13.58,13.58h-82.29c-7.39,0-13.38-5.99-13.38-13.58V53.68c0-7.39,5.99-13.38,13.38-13.38h70.11c7.59,0,13.58,5.99,13.58,13.38v49.14ZM271.53,97.23h14.38v-15.58h-14.38v15.58ZM297.9,138.57h-26.37v15.58h26.37v-15.58Z"/>
    <path class="cls-13" d="M94.38,318.19c1.06,1.77,1.59,3.9,1.59,5.84,0,4.25-2.3,8.32-6.2,10.45l-10.98,6.2c-1.77,1.06-3.9,1.42-5.84,1.42-4.25,0-8.32-2.12-10.45-6.02l-21.25-37.9c-.18-.35-.35-.89-.71-1.42v33.47c0,6.55-5.31,11.87-11.69,11.87h-13.1c-6.55,0-11.69-5.31-11.87-11.87v-113.69c0-6.2,4.78-11.87,10.8-12.04h63.22c6.55,0,12.04,5.31,12.04,12.04v61.63c0,6.38-4.96,11.51-11.16,11.87l15.58,28.16ZM53.3,241.15h-12.75v12.4h12.75v-12.4Z"/>
    <path class="cls-12" d="M177.44,204.49c6.73,0,12.04,5.31,12.04,12.04v113.69c0,6.55-5.31,11.87-12.04,11.87h-61.98c-6.55,0-12.04-5.31-12.04-11.87v-113.69c0-6.73,5.49-12.04,12.04-12.04h61.98ZM152.83,241.15h-12.75v64.29h12.75v-64.29Z"/>
    <path class="cls-13" d="M282.99,259.92c6.02.71,10.63,5.84,10.63,12.04l.18,58.09c0,6.73-5.49,12.04-12.04,12.04h-72.96c-6.55,0-11.87-5.31-11.87-12.04v-113.69c0-6.55,5.31-11.87,11.87-11.87h62.16c6.73,0,12.04,5.31,12.04,11.87v43.56ZM233.58,254.96h12.75v-13.81h-12.75v13.81ZM256.96,291.62h-23.38v13.81h23.38v-13.81Z"/>
    <path class="cls-12" d="M375.26,204.49c6.73,0,12.04,5.31,12.04,12.04v113.69c0,6.55-5.31,11.87-12.04,11.87h-61.98c-6.55,0-12.04-5.31-12.04-11.87v-113.69c0-6.73,5.49-12.04,12.04-12.04h61.98ZM350.64,241.15h-12.75v64.29h12.75v-64.29Z"/>
    <path class="cls-13" d="M480.63,204.49c6.55,0,12.04,5.31,12.04,11.87v12.75c0,6.55-5.49,12.04-12.04,12.04h-18.59v89.08c0,6.55-5.49,12.04-12.04,12.04h-12.57c-6.73,0-12.04-5.49-12.04-12.04v-89.08h-18.77c-6.55,0-11.87-5.49-11.87-12.04v-12.75c0-6.55,5.31-11.87,11.87-11.87h74.03Z"/>
  </g>
  <rect class="cls-2" x="397.27" y="47.49" width="84.52" height="55.59" rx="6.37" ry="6.37"/>
  <polygon class="cls-8" points="440.05 8.71 444.05 34.53 436.06 34.53 440.05 8.71"/>
  <polygon class="cls-8" points="368.03 77.72 393.84 73.73 393.84 81.72 368.03 77.72"/>
  <polygon class="cls-8" points="511.53 77.72 485.72 81.72 485.72 73.73 511.53 77.72"/>
  <rect class="cls-8" x="392" y="181.84" width="88.11" height="25.57" rx="2.93" ry="2.93"/>
  <rect class="cls-7" x="350.48" y="94.18" width="14.77" height="44.01" transform="translate(708.35 -20.69) rotate(140.68)"/>
  <rect class="cls-7" x="522.33" y="98.52" width="13.32" height="39.69" transform="translate(660.65 644.2) rotate(-116.67)"/>
  <circle class="cls-4" cx="440.03" cy="8.71" r="6.42"/>
  <circle class="cls-4" cx="511.82" cy="77.72" r="6.06"/>
  <circle class="cls-4" cx="367.62" cy="77.31" r="5.65"/>
  <circle class="cls-1" cx="420.81" cy="74.59" r="11.63"/>
  <circle class="cls-1" cx="457.66" cy="74.59" r="11.91"/>
  <circle class="cls-4" cx="367.38" cy="128.53" r="14.18"/>
  <circle class="cls-4" cx="511.36" cy="127.47" r="13.81"/>
  <circle class="cls-9" cx="420.81" cy="74.59" r="5.43"/>
  <circle class="cls-9" cx="457.66" cy="74.59" r="5.5"/>
  <circle class="cls-4" cx="551.87" cy="106.87" r="10.45"/>
  <circle class="cls-4" cx="339.81" cy="94.28" r="11.34"/>
  <circle class="cls-6" cx="339.11" cy="93.42" r="5.76"/>
  <circle class="cls-6" cx="551.97" cy="107.07" r="5.76"/>
  <circle class="cls-6" cx="511.36" cy="127.47" r="8.28"/>
  <circle class="cls-6" cx="367.9" cy="128.58" r="8.28"/>
  <rect class="cls-2" x="376.68" y="109.85" width="126.18" height="84.78" rx="9.71" ry="9.71"/>
  <rect class="cls-9" x="396.48" y="126.29" width="85.96" height="38.04"/>
  <rect class="cls-10" x="429.66" y="174.65" width="19.47" height="4.3"/>
  <rect class="cls-3" x="479.59" y="212.05" width="40.11" height="10.75" rx="1.23" ry="1.23" transform="translate(163.01 645.9) rotate(-75.36)"/>
  <rect class="cls-3" x="469.23" y="209.19" width="40.11" height="10.75" rx="1.23" ry="1.23" transform="translate(158.03 633.74) rotate(-75.36)"/>
  <rect class="cls-5" x="487.09" y="210.94" width="55.66" height="20.79" transform="translate(170.64 663.6) rotate(-75.36)"/>
  <rect class="cls-7" x="487.09" y="210.94" width="55.66" height="20.79" transform="translate(170.64 663.6) rotate(-75.36)"/>
  <rect class="cls-7" x="388.53" y="61.1" width="8.74" height="33.17"/>
  <rect class="cls-7" x="482.14" y="61.14" width="8.74" height="33.17"/>
  <rect class="cls-7" x="435.68" y="21.29" width="8.74" height="43.66" transform="translate(396.93 483.17) rotate(-90)"/>
  <rect class="cls-3" x="435.68" y="17.44" width="8.74" height="33.17" transform="translate(406.03 474.08) rotate(-90)"/>
  <circle class="cls-4" cx="395.59" cy="203.19" r="6.4"/>
  <circle class="cls-6" cx="395.59" cy="203.19" r="3.92"/>
  <rect class="cls-3" x="359.24" y="216.2" width="40.11" height="10.75" rx="1.23" ry="1.23" transform="translate(441.12 -213.33) rotate(67.8)"/>
  <rect class="cls-3" x="368.96" y="212.47" width="40.11" height="10.26" rx="1.18" ry="1.18" transform="translate(443.5 -224.8) rotate(67.8)"/>
  <rect class="cls-7" x="336.86" y="217.13" width="55.66" height="20.79" transform="translate(437.56 -196.1) rotate(67.8)"/>
  <circle class="cls-4" cx="480.11" cy="203.2" r="6.4"/>
  <circle class="cls-6" cx="480.1" cy="203.19" r="3.92"/>
</svg>